# xmcd
# 
# Track frame offsets:
#     150
#     18487
#     36657
#     56745
#     78190
#     99525
#     121765
#     142070
#     160320
#     179650
#     204237
#     223325
# 
# Disc length: 3243
# 
# Revision: 4
# Processed by: cddbd v1.5.2PL0 Copyright (c) Steve Scherf et al.
# Submitted via: fre:ac v1.0.31
# 
DISCID=b10ca90c
DTITLE=Boyz II Men - The Remix Collection
DYEAR=1995
DGENRE=R&B
TTITLE0=Under Preassure
TTITLE1=Vibin
TTITLE2=I Remember
TTITLE3=Water Runs Dry
TTITLE4=U Know
TTITLE5=I'll Make Love To You
TTITLE6=Uhh Ahh
TTITLE7=Motownphilly
TTITLE8=On Bended Knee
TTITLE9=Brokenhearted
TTITLE10=Thank You
TTITLE11=Sympin'
EXTD=YEAR: 1995
EXTT0=Countdown, Dallas Austin Mix,\nSympin' Interlude\n
EXTT1=The New Flava\nFeaturing Treach, Craig Mack, \nBusta Rhymes, Method Man.
EXTT2=Motownophilly Interlude\n
EXTT3=Strat Mix
EXTT4=Dalla Austin Mix
EXTT5=Make Love To You Version\nMotownphilly Interlude
EXTT6=Dedication Mix
EXTT7=Quiet Storm Version\n
EXTT8=Human Rhythm Mix
EXTT9=Accoustic Remix
EXTT10=Moog Flava
EXTT11=Dallas Austin Mix
PLAYORDER=
